<svg width="96" height="105" viewBox="0 0 96 105" fill="none" xmlns="http://www.w3.org/2000/svg">
<path d="M61.8552 8.89157C61.8552 8.89157 75.2734 33.0445 60.5133 62.5647C47.9002 87.9252 17.5748 92.0849 4.15656 92.0849C-2.55258 92.0849 -2.28422 98.794 13.5494 102.82C35.0186 108.187 79.2989 105.503 91.3754 73.2993C107.075 31.5685 72.1872 4.73191 64.5388 0.840605C59.1715 -1.84305 59.1715 2.18243 61.8552 8.89157Z" fill="#FED065"/>
<path d="M2.81465 98.1231C38.9098 102.819 77.6887 84.1681 80.3723 49.2805C83.056 14.6614 60.3791 1.10891 60.2449 0.974731C59.4398 2.31656 60.1107 5.26858 61.7209 9.15988C61.7209 9.15988 75.1392 33.3128 60.3791 62.6988C47.7659 87.9252 17.5748 92.0849 4.15648 92.0849C0.130997 92.0849 -1.74756 94.6343 2.81465 98.1231Z" fill="#FEE07E"/>
</svg>
