<svg width="244" height="303" viewBox="0 0 244 303" fill="none" xmlns="http://www.w3.org/2000/svg">
<g clip-path="url(#clip0_1649_5)">
<path d="M120.1 237C184.717 237 237.1 184.617 237.1 120C237.1 55.3827 184.717 3 120.1 3C55.4827 3 3.10001 55.3827 3.10001 120C3.10001 184.617 55.4827 237 120.1 237Z" stroke="white" stroke-width="6" stroke-miterlimit="10"/>
<path d="M5.20001 142.6C5.20001 142.6 23.5 172.5 71.5 151.5C78.5 184.5 93.6 208.5 121.5 207.5C148.5 206.5 161.5 184.5 166.5 154.5C181.8 159 218.6 164.3 234.5 142.5C225.5 196.5 183.5 234.5 122.5 236.5C69.6 238.2 13.6 196.5 5.20001 142.6Z" stroke="white" stroke-width="6" stroke-miterlimit="10"/>
<path d="M65.3 66.6L60.7 71.2C59.8 72.1 58.4 72.1 57.6 71.2L53 66.6C52.1 65.7 52.1 64.3 53 63.5L57.6 58.9C58.5 58 59.9 58 60.7 58.9L65.3 63.5C66.1 64.3 66.1 65.7 65.3 66.6Z" fill="white"/>
<path d="M182.3 66.6L177.7 71.2C176.8 72.1 175.4 72.1 174.6 71.2L170 66.6C169.1 65.7 169.1 64.3 170 63.5L174.6 58.9C175.5 58 176.9 58 177.7 58.9L182.3 63.5C183.1 64.3 183.1 65.7 182.3 66.6Z" fill="white"/>
<path d="M134.6 40.5C129.6 39.5 128.6 38.5 125.6 35.5C123.6 33.5 122.6 27.5 122.6 27.5C122.6 27.5 122.6 24.5 120.6 24.5C118.6 24.5 118.6 27.5 118.6 27.5C118.6 27.5 117.6 31.5 115.6 35.5C114.8 37.1 113.5 38.1 112.1 38.7C109.7 39.8 106.9 39.8 105.6 40.5C103.6 41.5 103.4 43.3 105.6 43.5C116.6 44.5 118.1 53.6 118.6 55.5C119.6 59.5 122.1 58.4 122.6 56.5C123.1 54.5 123.8 51.6 125.6 48.9C127.3 46.2 130.1 44 134.6 43.5C137.7 43.2 136.8 40.9 134.6 40.5Z" fill="white"/>
<path opacity="0.2" d="M197.6 182.5C192.6 181.5 191.6 180.5 188.6 177.5C186.6 175.5 185.6 169.5 185.6 169.5C185.6 169.5 185.6 166.5 183.6 166.5C181.6 166.5 181.6 169.5 181.6 169.5C181.6 169.5 180.6 173.5 178.6 177.5C177.8 179.1 176.5 180.1 175.1 180.7C172.7 181.8 169.9 181.8 168.6 182.5C166.6 183.5 166.4 185.3 168.6 185.5C179.6 186.5 181.1 195.6 181.6 197.5C182.6 201.5 185.1 200.4 185.6 198.5C186.1 196.5 186.8 193.6 188.6 190.9C190.3 188.2 193.1 186 197.6 185.5C200.7 185.2 199.8 182.9 197.6 182.5Z" fill="white"/>
<path d="M90.2 84.6C90.2 84.6 99.9 67.9 120.7 67.9C144.3 67.9 152.6 84.6 152.6 84.6C152.6 84.6 166 78.8 190.8 93.6C211.6 106.1 218 119.7 214.4 126.9C210.2 135.2 188 135.2 167.2 122.7C170 174.1 151.2 208.1 120.7 208.1C90.2 208.1 64.5 163 72.8 122.7C46.4 143.5 26.4 133.6 24.2 125.5C20.1 110.3 43.7 81.1 90.2 84.6Z" stroke="white" stroke-width="6" stroke-miterlimit="10"/>
<path d="M100.9 131.8C93.4 131.8 89 126 87.5 122.6C86.6 120.5 87.6 118 89.7 117.1C91.8 116.2 94.2 117.2 95.2 119.3C95.3 119.5 97.2 123.5 100.9 123.5C103.7 123.5 106.3 119.9 106.8 118.9C107.9 116.9 110.5 116.2 112.5 117.3C114.5 118.4 115.2 121 114.1 123C113.6 123.8 109 131.8 100.9 131.8Z" fill="white"/>
<path d="M140.3 131.8C132.8 131.8 128.4 126 126.9 122.6C126 120.5 127 118 129.1 117.1C131.2 116.2 133.6 117.2 134.6 119.3C134.7 119.5 136.6 123.5 140.3 123.5C143.1 123.5 145.7 119.9 146.2 118.9C147.3 116.9 149.9 116.2 151.9 117.3C153.9 118.4 154.6 121 153.5 123C153 123.8 148.3 131.8 140.3 131.8Z" fill="white"/>
<path d="M120.7 209.5C118.4 209.5 116.5 207.6 116.5 205.3V192.5C103.2 190.7 100.1 180.5 100 180C99.4 177.8 100.6 175.5 102.9 174.9C105.1 174.3 107.4 175.5 108 177.7C108.2 178.4 110.5 184.5 120.7 184.5H124.9V205.3C124.9 207.6 123 209.5 120.7 209.5Z" fill="white"/>
<path d="M120.7 192.8C118.4 192.8 116.5 190.9 116.5 188.6C116.5 186.3 118.4 184.4 120.7 184.4C128.8 184.4 132 177.5 132.2 177.2C133.1 175.1 135.6 174.2 137.7 175.1C139.8 176 140.8 178.4 139.9 180.5C139.6 181.1 134.4 192.8 120.7 192.8Z" fill="white"/>
<path d="M75.6 124.5C75.6 124.5 78 111.6 83.6 100.5C61.4 111.6 24.6 128.5 30.6 110.5C21.5 124.2 23.3 133.4 38 134.8C49.9 135.9 61.7 134.2 75.6 124.5Z" fill="white"/>
<path d="M164.6 124.5C164.6 124.5 164.6 117.5 160.2 104C181.1 114.5 215.6 131.5 208.6 112.5C218.3 126.4 214.2 134.1 200.3 134.3C186.6 134.5 178.6 130.5 164.6 124.5Z" fill="white"/>
</g>
<path d="M27.6 251.25C27.6333 250.983 27.7333 250.8 27.9 250.7C28.1 250.567 28.2833 250.5 28.45 250.5C30.7167 250.5 32.8333 250.433 34.8 250.3C36.8 250.133 38.3667 250.05 39.5 250.05C42.3333 250.05 44.7 250.333 46.6 250.9C48.5333 251.467 50.0833 252.35 51.25 253.55C52.45 254.75 53.3 256.3 53.8 258.2C54.3 260.1 54.55 262.383 54.55 265.05C54.55 267.75 54.2667 270.4 53.7 273C53.1667 275.567 52.2167 277.85 50.85 279.85C49.4833 281.85 47.6333 283.467 45.3 284.7C43 285.9 40.0833 286.5 36.55 286.5C34.9167 286.5 33.4167 286.467 32.05 286.4C30.7167 286.333 29.5667 286.133 28.6 285.8C27.6333 285.467 26.8833 284.967 26.35 284.3C25.8167 283.633 25.55 282.717 25.55 281.55C25.55 281.117 25.5667 280.467 25.6 279.6C25.6667 278.733 25.7333 277.7 25.8 276.5C25.9 275.3 26 273.983 26.1 272.55C26.2333 271.083 26.3667 269.55 26.5 267.95C26.7667 264.65 26.9667 262.017 27.1 260.05C27.2667 258.083 27.3667 256.55 27.4 255.45C27.4667 254.317 27.5 253.467 27.5 252.9C27.5333 252.333 27.5667 251.783 27.6 251.25ZM36.9 278.6C38.7667 278.6 40.25 278.2 41.35 277.4C42.4833 276.6 43.35 275.583 43.95 274.35C44.55 273.117 44.95 271.767 45.15 270.3C45.35 268.833 45.45 267.45 45.45 266.15C45.45 264.75 45.35 263.533 45.15 262.5C44.9833 261.433 44.6667 260.55 44.2 259.85C43.7667 259.15 43.15 258.633 42.35 258.3C41.55 257.933 40.55 257.75 39.35 257.75C38.9833 257.75 38.5167 257.767 37.95 257.8C37.3833 257.833 36.7 257.883 35.9 257.95C35.8333 259.183 35.75 260.65 35.65 262.35C35.55 264.017 35.4333 265.783 35.3 267.65C35.2 269.483 35.0833 271.35 34.95 273.25C34.8167 275.117 34.6833 276.85 34.55 278.45C35.05 278.517 35.5 278.567 35.9 278.6C36.3 278.6 36.6333 278.6 36.9 278.6ZM69.5508 286.5C67.2508 286.5 65.3341 286.183 63.8008 285.55C62.3008 284.883 61.1008 283.983 60.2008 282.85C59.3008 281.717 58.6674 280.4 58.3008 278.9C57.9341 277.367 57.7508 275.733 57.7508 274C57.7508 272 57.9841 270.05 58.4508 268.15C58.9508 266.217 59.7841 264.5 60.9508 263C62.1174 261.5 63.6508 260.3 65.5508 259.4C67.4841 258.467 69.8841 258 72.7508 258C76.9508 258 79.9508 259.033 81.7508 261.1C83.5841 263.133 84.5008 266 84.5008 269.7C84.5008 270.733 84.4174 271.883 84.2508 273.15C84.1174 274.383 83.8341 275.617 83.4008 276.85C83.0008 278.083 82.4341 279.283 81.7008 280.45C81.0008 281.617 80.1008 282.65 79.0008 283.55C77.9008 284.45 76.5674 285.167 75.0008 285.7C73.4674 286.233 71.6508 286.5 69.5508 286.5ZM71.9008 264.65C70.6341 264.65 69.6174 264.983 68.8508 265.65C68.1174 266.283 67.5508 267.067 67.1508 268C66.7841 268.9 66.5341 269.867 66.4008 270.9C66.3008 271.9 66.2508 272.75 66.2508 273.45C66.2508 275.65 66.6008 277.267 67.3008 278.3C68.0008 279.333 69.0008 279.85 70.3008 279.85C71.4674 279.85 72.4174 279.483 73.1508 278.75C73.9174 278.017 74.5008 277.133 74.9008 276.1C75.3341 275.067 75.6174 273.983 75.7508 272.85C75.9174 271.717 76.0008 270.767 76.0008 270C76.0008 268.333 75.6841 267.033 75.0508 266.1C74.4508 265.133 73.4008 264.65 71.9008 264.65ZM104.384 270.45C104.184 270.45 103.95 270.45 103.684 270.45C103.45 270.417 103.217 270.383 102.984 270.35C102.75 270.283 102.55 270.217 102.384 270.15C102.217 270.05 102.134 269.933 102.134 269.8C102.134 269.367 102.15 268.967 102.184 268.6C102.217 268.233 102.234 267.85 102.234 267.45C102.234 266.717 102.134 266.117 101.934 265.65C101.734 265.183 101.334 264.95 100.734 264.95C99.8003 264.95 99.0169 265.567 98.3836 266.8C97.7836 268 97.4003 269.817 97.2336 272.25C97.1669 273.317 97.0669 274.533 96.9336 275.9C96.8336 277.233 96.7336 278.533 96.6336 279.8C96.5336 281.033 96.4503 282.133 96.3836 283.1C96.3169 284.067 96.2836 284.7 96.2836 285C96.2836 285.333 96.1669 285.583 95.9336 285.75C95.7003 285.917 95.4503 286 95.1836 286H93.3836C92.3503 286 91.5003 285.9 90.8336 285.7C90.2003 285.467 89.6836 285.15 89.2836 284.75C88.9169 284.35 88.6503 283.867 88.4836 283.3C88.3503 282.7 88.2836 282.017 88.2836 281.25C88.2836 280.75 88.3003 280.05 88.3336 279.15C88.4003 278.217 88.5003 276.95 88.6336 275.35C88.7669 273.717 88.9169 271.667 89.0836 269.2C89.2836 266.7 89.5169 263.617 89.7836 259.95C89.8503 258.983 90.2003 258.5 90.8336 258.5H92.7836C93.7169 258.5 94.5003 258.6 95.1336 258.8C95.7669 259 96.2836 259.283 96.6836 259.65C97.0836 259.983 97.3669 260.383 97.5336 260.85C97.7336 261.317 97.8669 261.8 97.9336 262.3C98.3336 261.533 98.8003 260.883 99.3336 260.35C99.9003 259.783 100.484 259.333 101.084 259C101.684 258.633 102.3 258.383 102.934 258.25C103.567 258.083 104.15 258 104.684 258C105.317 258 105.95 258.117 106.584 258.35C107.25 258.583 107.85 258.933 108.384 259.4C108.917 259.867 109.334 260.467 109.634 261.2C109.967 261.933 110.134 262.8 110.134 263.8C110.134 264.7 110 265.55 109.734 266.35C109.467 267.15 109.084 267.867 108.584 268.5C108.084 269.1 107.467 269.583 106.734 269.95C106.034 270.283 105.25 270.45 104.384 270.45ZM120.809 277C120.709 278.533 120.593 280 120.459 281.4C120.326 282.767 120.226 283.967 120.159 285C120.126 285.4 120.043 285.667 119.909 285.8C119.776 285.933 119.493 286 119.059 286H117.259C116.226 286 115.376 285.9 114.709 285.7C114.076 285.467 113.559 285.15 113.159 284.75C112.793 284.35 112.526 283.867 112.359 283.3C112.226 282.7 112.159 282.017 112.159 281.25C112.159 280.75 112.176 280.05 112.209 279.15C112.276 278.217 112.376 276.95 112.509 275.35C112.643 273.717 112.793 271.667 112.959 269.2C113.159 266.7 113.393 263.617 113.659 259.95C113.693 259.217 113.776 258.783 113.909 258.65C114.009 258.55 114.276 258.5 114.709 258.5H116.659C117.659 258.5 118.476 258.617 119.109 258.85C119.743 259.083 120.259 259.383 120.659 259.75C121.059 260.117 121.343 260.55 121.509 261.05C121.676 261.55 121.776 262.067 121.809 262.6C122.776 260.8 123.876 259.583 125.109 258.95C126.343 258.317 127.793 258 129.459 258C130.359 258 131.226 258.083 132.059 258.25C132.893 258.417 133.643 258.7 134.309 259.1C134.976 259.5 135.543 260.033 136.009 260.7C136.476 261.333 136.809 262.15 137.009 263.15C138.043 261.217 139.176 259.883 140.409 259.15C141.643 258.383 143.193 258 145.059 258C146.093 258 147.076 258.117 148.009 258.35C148.976 258.55 149.809 258.917 150.509 259.45C151.209 259.983 151.759 260.717 152.159 261.65C152.593 262.55 152.809 263.683 152.809 265.05C152.809 266.083 152.759 267.35 152.659 268.85C152.559 270.35 152.443 271.983 152.309 273.75C152.176 275.483 152.026 277.283 151.859 279.15C151.693 280.983 151.559 282.75 151.459 284.45C151.426 284.817 151.393 285.1 151.359 285.3C151.326 285.5 151.259 285.65 151.159 285.75C151.093 285.85 150.976 285.917 150.809 285.95C150.643 285.983 150.409 286 150.109 286H148.509C147.443 286 146.576 285.9 145.909 285.7C145.243 285.5 144.726 285.217 144.359 284.85C143.993 284.483 143.726 284.033 143.559 283.5C143.426 282.933 143.359 282.3 143.359 281.6C143.359 281.167 143.376 280.55 143.409 279.75C143.476 278.95 143.543 278.083 143.609 277.15C143.709 276.217 143.793 275.25 143.859 274.25C143.959 273.25 144.043 272.333 144.109 271.5C144.209 270.633 144.276 269.883 144.309 269.25C144.376 268.617 144.409 268.2 144.409 268C144.409 267.133 144.226 266.367 143.859 265.7C143.526 265.033 142.859 264.7 141.859 264.7C140.993 264.7 140.243 264.983 139.609 265.55C138.976 266.117 138.443 266.9 138.009 267.9C137.576 268.9 137.226 270.083 136.959 271.45C136.693 272.817 136.509 274.3 136.409 275.9C136.343 276.933 136.259 278.117 136.159 279.45C136.059 280.783 135.943 282.45 135.809 284.45C135.776 284.817 135.743 285.1 135.709 285.3C135.676 285.5 135.609 285.65 135.509 285.75C135.443 285.85 135.326 285.917 135.159 285.95C134.993 285.983 134.759 286 134.459 286H132.859C131.793 286 130.926 285.9 130.259 285.7C129.593 285.5 129.076 285.217 128.709 284.85C128.343 284.483 128.076 284.033 127.909 283.5C127.776 282.933 127.709 282.3 127.709 281.6C127.709 280.933 127.759 279.967 127.859 278.7C127.993 277.4 128.109 276.067 128.209 274.7C128.343 273.3 128.459 271.983 128.559 270.75C128.693 269.483 128.759 268.567 128.759 268C128.759 267.133 128.576 266.367 128.209 265.7C127.876 265.033 127.209 264.7 126.209 264.7C125.309 264.7 124.543 265.033 123.909 265.7C123.276 266.367 122.743 267.267 122.309 268.4C121.909 269.5 121.576 270.8 121.309 272.3C121.076 273.8 120.909 275.367 120.809 277ZM162.427 286C161.393 286 160.543 285.9 159.877 285.7C159.243 285.467 158.727 285.15 158.327 284.75C157.96 284.35 157.693 283.867 157.527 283.3C157.393 282.7 157.327 282.017 157.327 281.25C157.327 280.75 157.343 280.05 157.377 279.15C157.443 278.217 157.543 276.95 157.677 275.35C157.81 273.717 157.96 271.667 158.127 269.2C158.327 266.7 158.56 263.617 158.827 259.95C158.86 259.217 158.943 258.783 159.077 258.65C159.177 258.55 159.443 258.5 159.877 258.5H161.827C162.86 258.5 163.693 258.6 164.327 258.8C164.993 259 165.51 259.3 165.877 259.7C166.277 260.1 166.543 260.583 166.677 261.15C166.843 261.717 166.927 262.35 166.927 263.05C166.927 263.55 166.893 264.3 166.827 265.3C166.76 266.3 166.66 267.667 166.527 269.4C166.427 271.1 166.277 273.233 166.077 275.8C165.877 278.333 165.627 281.4 165.327 285C165.293 285.4 165.21 285.667 165.077 285.8C164.943 285.933 164.66 286 164.227 286H162.427ZM158.877 252.6C158.877 251.267 159.36 250.217 160.327 249.45C161.293 248.683 162.593 248.3 164.227 248.3C165.66 248.3 166.693 248.6 167.327 249.2C167.993 249.767 168.327 250.533 168.327 251.5C168.327 252.733 167.86 253.767 166.927 254.6C166.027 255.4 164.693 255.8 162.927 255.8C160.227 255.8 158.877 254.733 158.877 252.6ZM187.489 270.45C187.289 270.45 187.056 270.45 186.789 270.45C186.556 270.417 186.322 270.383 186.089 270.35C185.856 270.283 185.656 270.217 185.489 270.15C185.322 270.05 185.239 269.933 185.239 269.8C185.239 269.367 185.256 268.967 185.289 268.6C185.322 268.233 185.339 267.85 185.339 267.45C185.339 266.717 185.239 266.117 185.039 265.65C184.839 265.183 184.439 264.95 183.839 264.95C182.906 264.95 182.122 265.567 181.489 266.8C180.889 268 180.506 269.817 180.339 272.25C180.272 273.317 180.172 274.533 180.039 275.9C179.939 277.233 179.839 278.533 179.739 279.8C179.639 281.033 179.556 282.133 179.489 283.1C179.422 284.067 179.389 284.7 179.389 285C179.389 285.333 179.272 285.583 179.039 285.75C178.806 285.917 178.556 286 178.289 286H176.489C175.456 286 174.606 285.9 173.939 285.7C173.306 285.467 172.789 285.15 172.389 284.75C172.022 284.35 171.756 283.867 171.589 283.3C171.456 282.7 171.389 282.017 171.389 281.25C171.389 280.75 171.406 280.05 171.439 279.15C171.506 278.217 171.606 276.95 171.739 275.35C171.872 273.717 172.022 271.667 172.189 269.2C172.389 266.7 172.622 263.617 172.889 259.95C172.956 258.983 173.306 258.5 173.939 258.5H175.889C176.822 258.5 177.606 258.6 178.239 258.8C178.872 259 179.389 259.283 179.789 259.65C180.189 259.983 180.472 260.383 180.639 260.85C180.839 261.317 180.972 261.8 181.039 262.3C181.439 261.533 181.906 260.883 182.439 260.35C183.006 259.783 183.589 259.333 184.189 259C184.789 258.633 185.406 258.383 186.039 258.25C186.672 258.083 187.256 258 187.789 258C188.422 258 189.056 258.117 189.689 258.35C190.356 258.583 190.956 258.933 191.489 259.4C192.022 259.867 192.439 260.467 192.739 261.2C193.072 261.933 193.239 262.8 193.239 263.8C193.239 264.7 193.106 265.55 192.839 266.35C192.572 267.15 192.189 267.867 191.689 268.5C191.189 269.1 190.572 269.583 189.839 269.95C189.139 270.283 188.356 270.45 187.489 270.45ZM206.815 286.5C205.348 286.5 203.882 286.317 202.415 285.95C200.982 285.583 199.682 284.95 198.515 284.05C197.382 283.15 196.448 281.95 195.715 280.45C194.982 278.95 194.615 277.067 194.615 274.8C194.615 273.967 194.682 272.967 194.815 271.8C194.948 270.633 195.198 269.433 195.565 268.2C195.965 266.967 196.498 265.75 197.165 264.55C197.865 263.317 198.765 262.217 199.865 261.25C200.965 260.283 202.298 259.5 203.865 258.9C205.432 258.3 207.298 258 209.465 258C211.198 258 212.665 258.2 213.865 258.6C215.065 259 216.032 259.55 216.765 260.25C217.498 260.917 218.032 261.7 218.365 262.6C218.698 263.5 218.865 264.467 218.865 265.5C218.865 267.033 218.548 268.333 217.915 269.4C217.315 270.467 216.515 271.367 215.515 272.1C214.548 272.8 213.465 273.35 212.265 273.75C211.065 274.15 209.882 274.467 208.715 274.7C207.548 274.9 206.465 275.033 205.465 275.1C204.498 275.133 203.748 275.15 203.215 275.15C203.215 275.783 203.298 276.417 203.465 277.05C203.665 277.65 203.948 278.183 204.315 278.65C204.682 279.117 205.165 279.5 205.765 279.8C206.365 280.1 207.098 280.25 207.965 280.25C208.832 280.25 209.498 280.117 209.965 279.85C210.465 279.55 210.865 279.233 211.165 278.9C211.465 278.533 211.715 278.217 211.915 277.95C212.148 277.65 212.448 277.5 212.815 277.5C212.982 277.5 213.265 277.55 213.665 277.65C214.098 277.717 214.532 277.883 214.965 278.15C215.398 278.417 215.782 278.783 216.115 279.25C216.448 279.717 216.615 280.317 216.615 281.05C216.615 282.017 216.315 282.85 215.715 283.55C215.115 284.25 214.332 284.817 213.365 285.25C212.432 285.683 211.382 286 210.215 286.2C209.048 286.4 207.915 286.5 206.815 286.5ZM207.765 264.65C207.032 264.65 206.398 264.867 205.865 265.3C205.365 265.7 204.932 266.217 204.565 266.85C204.232 267.483 203.965 268.183 203.765 268.95C203.598 269.717 203.465 270.45 203.365 271.15C205.432 271.117 207.098 270.767 208.365 270.1C209.665 269.433 210.315 268.483 210.315 267.25C210.315 266.583 210.098 265.983 209.665 265.45C209.265 264.917 208.632 264.65 207.765 264.65ZM209.965 255.25C209.732 255.25 209.465 255.167 209.165 255C208.898 254.833 208.632 254.633 208.365 254.4C208.098 254.133 207.865 253.867 207.665 253.6C207.498 253.3 207.415 253.05 207.415 252.85C207.415 252.783 207.582 252.5 207.915 252C208.248 251.5 208.665 250.883 209.165 250.15C209.665 249.417 210.215 248.617 210.815 247.75C211.415 246.883 211.982 246.067 212.515 245.3C212.715 245 212.882 244.8 213.015 244.7C213.148 244.6 213.365 244.55 213.665 244.55C214.065 244.55 214.582 244.65 215.215 244.85C215.848 245.05 216.465 245.3 217.065 245.6C217.665 245.9 218.182 246.233 218.615 246.6C219.048 246.933 219.265 247.25 219.265 247.55C219.265 247.783 219.065 248.133 218.665 248.6C218.298 249.067 217.815 249.583 217.215 250.15C216.615 250.717 215.948 251.3 215.215 251.9C214.482 252.5 213.765 253.05 213.065 253.55C212.365 254.05 211.732 254.467 211.165 254.8C210.632 255.1 210.232 255.25 209.965 255.25Z" fill="white"/>
<defs>
<clipPath id="clip0_1649_5">
<rect width="240.1" height="240" fill="white"/>
</clipPath>
</defs>
</svg>
