<svg width="244" height="244" viewBox="0 0 244 244" fill="none" xmlns="http://www.w3.org/2000/svg">
<g clip-path="url(#clip0_1649_59)">
<path d="M122 244C189.379 244 244 189.379 244 122C244 54.6213 189.379 0 122 0C54.6213 0 0 54.6213 0 122C0 189.379 54.6213 244 122 244Z" fill="#3351C6"/>
<path d="M2.29407 145.566C2.29407 145.566 15.0154 181.853 71.9488 153.282C150.675 154.95 170.279 154.95 170.279 154.95C170.279 154.95 218.036 177.995 241.706 145.566C221.581 215.325 176.744 241.393 121.479 243.479C66.2137 245.564 8.23766 196.66 2.29407 145.566Z" fill="#2944AD"/>
<path d="M64.8581 66.318L60.0615 71.1145C59.1231 72.053 57.6632 72.053 56.829 71.1145L52.0325 66.318C51.094 65.3795 51.094 63.9197 52.0325 63.0855L56.829 58.2889C57.7675 57.3504 59.2273 57.3504 60.0615 58.2889L64.8581 63.0855C65.7966 63.9197 65.7966 65.3795 64.8581 66.318Z" fill="#28F0A8"/>
<path d="M186.858 66.318L182.062 71.1145C181.123 72.053 179.663 72.053 178.829 71.1145L174.032 66.318C173.094 65.3795 173.094 63.9197 174.032 63.0855L178.829 58.2889C179.768 57.3504 181.227 57.3504 182.062 58.2889L186.858 63.0855C187.797 63.9197 187.797 65.3795 186.858 66.318Z" fill="#28F0A8"/>
<path d="M127.735 47.8615C129.508 45.0461 132.427 42.7521 137.12 42.2308C140.352 41.9179 139.414 39.5196 137.12 39.1026C131.906 38.0598 130.863 37.0171 127.735 33.8889C125.65 31.8034 124.607 25.547 124.607 25.547C124.607 25.547 124.607 22.4188 122.521 22.4188C120.436 22.4188 120.436 25.547 120.436 25.547C120.436 25.547 119.393 29.7179 117.308 33.8889C116.473 35.5573 115.118 36.6 113.658 37.2256C117.933 37.8513 124.607 40.1453 127.735 47.8615Z" fill="#A3AFE4"/>
<path d="M113.658 37.2256C111.156 38.3727 108.236 38.3727 106.88 39.1026C104.795 40.1453 104.586 42.0222 106.88 42.2308C118.35 43.2735 119.914 52.7624 120.436 54.7436C121.479 58.9145 124.085 57.7675 124.607 55.7863C125.128 53.7009 125.858 50.6769 127.735 47.8615C124.607 40.1453 117.933 37.8513 113.658 37.2256Z" fill="#8897DC"/>
<path opacity="0.2" d="M202.812 187.171C197.598 186.128 196.556 185.085 193.427 181.957C191.342 179.872 190.299 173.615 190.299 173.615C190.299 173.615 190.299 170.487 188.214 170.487C186.128 170.487 186.128 173.615 186.128 173.615C186.128 173.615 185.086 177.786 183 181.957C182.166 183.626 180.81 184.668 179.35 185.294C176.848 186.441 173.928 186.441 172.573 187.171C170.487 188.214 170.279 190.091 172.573 190.299C184.043 191.342 185.607 200.831 186.128 202.812C187.171 206.983 189.778 205.836 190.299 203.855C190.821 201.769 191.55 198.745 193.427 195.93C195.2 193.115 198.12 190.821 202.812 190.299C206.044 189.986 205.106 187.588 202.812 187.171Z" fill="white"/>
<path d="M90.8222 85.0872C90.8222 85.0872 100.937 67.6735 122.626 67.6735C147.234 67.6735 155.889 85.0872 155.889 85.0872C155.889 85.0872 169.862 79.0393 195.721 94.4718C217.41 107.506 224.084 121.687 220.33 129.195C215.95 137.85 192.802 137.85 171.113 124.815C174.033 178.412 154.429 213.865 122.626 213.865C90.8222 213.865 64.024 166.838 72.7829 124.815C45.2547 146.504 24.4 136.181 22.106 127.735C17.7265 111.885 42.3351 81.4376 90.8222 85.0872Z" fill="white"/>
<path d="M102.084 134.304C94.2633 134.304 89.6753 128.256 88.1112 124.711C87.1727 122.521 88.2154 119.915 90.4052 118.976C92.5949 118.038 95.0975 119.08 96.1402 121.27C96.2445 121.479 98.2257 125.65 102.084 125.65C105.003 125.65 107.715 121.896 108.236 120.853C109.383 118.768 112.094 118.038 114.18 119.185C116.265 120.332 116.995 123.043 115.848 125.128C115.327 125.962 110.426 134.304 102.084 134.304Z" fill="#3351C6"/>
<path d="M143.063 134.304C135.243 134.304 130.655 128.256 129.091 124.711C128.152 122.521 129.195 119.915 131.385 118.976C133.574 118.038 136.077 119.08 137.12 121.27C137.224 121.479 139.205 125.65 143.063 125.65C145.983 125.65 148.694 121.896 149.215 120.853C150.362 118.768 153.074 118.038 155.159 119.185C157.245 120.332 157.974 123.043 156.827 125.128C156.306 125.962 151.509 134.304 143.063 134.304Z" fill="#3351C6"/>
<path d="M122.73 215.325C120.332 215.325 118.35 213.344 118.35 210.945V197.598C104.482 195.721 101.25 185.085 101.145 184.564C100.52 182.27 101.771 179.872 104.169 179.246C106.463 178.62 108.862 179.872 109.487 182.166C109.696 182.896 112.094 189.256 122.73 189.256H127.109V210.945C127.005 213.344 125.128 215.325 122.73 215.325Z" fill="#3351C6"/>
<path d="M122.73 197.911C120.332 197.911 118.35 195.93 118.35 193.532C118.35 191.133 120.332 189.152 122.73 189.152C131.176 189.152 134.513 181.957 134.721 181.644C135.66 179.455 138.267 178.516 140.456 179.455C142.646 180.393 143.689 182.896 142.75 185.085C142.333 185.711 136.911 197.911 122.73 197.911Z" fill="#3351C6"/>
<path d="M73.5129 125.545C73.5129 125.545 74.9727 115.431 80.7078 103.856C57.559 115.431 25.8599 130.238 26.4855 109.8C16.9966 124.085 20.959 135.973 36.2872 137.432C48.9043 138.579 59.0189 135.764 73.5129 125.545Z" fill="#EFE2DD"/>
<path d="M170.487 125.545C170.487 125.545 170.487 118.35 163.814 105.316C185.607 116.265 217.41 131.802 216.785 112.511C226.899 127.005 220.017 135.556 205.627 136.911C193.74 138.058 184.043 135.138 170.487 125.545Z" fill="#EFE2DD"/>
</g>
<defs>
<clipPath id="clip0_1649_59">
<rect width="244" height="244" fill="white"/>
</clipPath>
</defs>
</svg>
